<svg width="253" height="40" viewBox="0 0 253 40" fill="none" xmlns="http://www.w3.org/2000/svg">
<path d="M252.657 20.7143C252.447 21.4221 252.306 22.1485 252.236 22.8834C250.832 29.0843 246.769 32.5229 240.702 33.8498C238.931 34.2155 237.125 34.3908 235.317 34.373H225.371C224.906 34.373 224.555 34.373 224.6 33.735C224.638 33.2055 224.561 32.7972 225.352 32.7589C227.681 32.6377 228.363 31.9487 228.37 29.6457C228.408 23.196 228.37 16.7462 228.37 10.2965C228.367 10.0827 228.348 9.86934 228.312 9.65852C228.064 7.78293 227.674 7.39378 225.761 7.17049C225.352 7.12584 224.938 7.17049 224.919 6.53254C224.899 5.89458 225.021 5.55008 225.831 5.56284C229.901 5.6075 233.971 5.56284 238.035 5.56284C239.936 5.55948 241.829 5.81488 243.662 6.32201C248.842 7.79569 251.54 11.4257 252.459 16.5293C252.459 16.7207 252.383 16.9695 252.65 17.078L252.657 20.7143ZM234.386 19.2087C234.386 22.3985 234.386 25.5883 234.386 28.7781C234.382 29.3767 234.446 29.9739 234.577 30.558C234.652 31.0873 234.915 31.572 235.318 31.9234C235.721 32.2748 236.237 32.4695 236.772 32.4719C237.52 32.5487 238.277 32.5034 239.011 32.3379C240.234 32.048 241.366 31.4616 242.308 30.6305C243.251 29.7994 243.974 28.7491 244.414 27.5724C245.443 25.1986 245.989 22.6441 246.022 20.0573C246.055 17.4705 245.574 14.903 244.606 12.5038C243.228 8.98229 240.14 7.22153 236.389 7.40016C234.762 7.48947 234.399 7.85949 234.392 9.50542C234.379 12.7335 234.386 15.9743 234.386 19.2087Z" fill="white"/>
<path d="M56.5422 39.9874C56.5767 39.6904 56.7145 39.4149 56.9314 39.2091C61.3716 33.191 65.8096 27.1772 70.2455 21.1677C70.376 20.9514 70.5651 20.7767 70.791 20.6637C71.0169 20.5508 71.2702 20.5043 71.5215 20.5297C74.0733 20.5744 76.6251 20.5616 79.1769 20.5744C79.1629 20.6633 79.1349 20.7494 79.094 20.8296L72.3636 29.9141C70.169 32.8699 67.9808 35.8364 65.799 38.8136C65.6012 39.0879 65.161 39.3941 65.3652 39.7131C65.5693 40.0321 66.0031 39.8343 66.3795 39.8343C68.3955 39.8343 70.4114 39.8343 72.4273 39.8343C72.7463 39.8343 73.0653 39.7067 73.3715 40.0002L56.5422 39.9874Z" fill="white"/>
<path d="M73.3908 39.9873C73.1165 39.6938 72.7529 39.8214 72.4466 39.8214C70.4307 39.8214 68.4147 39.8214 66.3988 39.8214C66.0479 39.8214 65.5631 40.0064 65.3845 39.7002C65.2058 39.394 65.6205 39.0622 65.8183 38.8007C68.0001 35.8235 70.1883 32.8656 72.3828 29.9267L79.0878 20.8231C79.1287 20.7429 79.1567 20.6568 79.1707 20.5679H87.7512C87.8342 20.8805 87.5662 21.04 87.4195 21.2377C82.941 27.3153 78.4604 33.3866 73.9777 39.4514C73.8629 39.6045 73.6333 39.7193 73.7289 39.9809L73.3908 39.9873Z" fill="white"/>
<path d="M88.3828 39.9871C88.4016 39.9475 88.4229 39.9092 88.4466 39.8723L104.198 39.834C104.587 39.834 104.97 39.8786 105.359 39.8978H105.416V39.9552L88.3828 39.9871Z" fill="white"/>
<path d="M131.834 19.9996V10.9981C131.834 10.6663 131.834 10.3601 131.834 10.0092C131.745 7.94863 131.196 7.38723 129.123 7.18946C128.733 7.15118 128.204 7.34257 128.185 6.5515C128.166 5.76044 128.293 5.53077 129.142 5.54353C132.848 5.60095 136.555 5.54353 140.268 5.54353C140.663 5.54353 141.129 5.3968 141.097 6.11769C141.065 6.69185 141.097 7.1129 140.3 7.1767C138.513 7.31067 138.06 7.81466 137.926 9.58818C137.735 12.14 137.869 14.6918 137.812 17.2437C137.812 17.7859 138.041 17.8816 138.52 17.8816C141.497 17.8816 144.474 17.8816 147.451 17.8816C147.955 17.8816 148.127 17.7349 148.127 17.2437C148.127 14.7556 148.127 12.2676 148.127 9.77318C148.095 7.91673 147.528 7.37447 145.627 7.18308C144.816 7.10015 144.523 6.62806 144.765 5.85613C144.906 5.40318 145.257 5.58819 145.518 5.58181C148.561 5.58181 151.604 5.58181 154.647 5.58181C155.368 5.58181 156.095 5.58181 156.816 5.58181C157.263 5.58181 157.78 5.39042 157.761 6.21977C157.761 6.896 157.582 7.13842 156.874 7.18946C154.698 7.33619 154.207 7.92949 154.201 10.3792C154.201 15.4191 154.201 20.459 154.201 25.4988C154.201 26.998 154.169 28.4972 154.239 29.9645C154.335 31.9868 154.82 32.5163 156.791 32.7014C157.697 32.7715 157.697 33.199 157.678 33.8497C157.678 34.258 157.486 34.3473 157.123 34.3473C153.142 34.3473 149.161 34.3473 145.186 34.3473C144.631 34.3473 144.606 34.0474 144.644 33.6583C144.682 33.2691 144.434 32.8417 145.148 32.7396C147.847 32.3696 148.134 32.006 148.134 29.2883C148.134 26.5706 148.134 23.7062 148.134 20.9183C148.134 20.2803 147.955 20.1145 147.33 20.1272C144.408 20.1272 141.48 20.1272 138.558 20.1272C137.971 20.1272 137.786 20.2803 137.799 20.8736C137.863 23.8401 137.741 26.813 137.882 29.805C137.984 32.0506 138.373 32.5419 140.619 32.7524C141.442 32.8289 141.161 33.3393 141.218 33.7604C141.301 34.3345 140.976 34.3983 140.523 34.3983C136.695 34.3983 132.867 34.3983 129.04 34.3983C128.568 34.3983 128.281 34.3218 128.338 33.7604C128.389 33.3202 128.159 32.7588 128.976 32.7779C129.408 32.7734 129.837 32.709 130.252 32.5865C130.602 32.5138 130.922 32.3394 131.173 32.0851C131.424 31.8309 131.594 31.5081 131.662 31.1575C131.792 30.511 131.85 29.8519 131.834 29.1926V19.9996Z" fill="white"/>
<path d="M30.6475 20.6001C30.6475 16.3385 31.6299 12.9446 33.8373 9.93984C38.8963 3.03076 51.4831 2.7692 55.6809 12.4917C56.8429 15.0113 57.3909 17.7704 57.28 20.5428C57.1691 23.3152 56.4024 26.0219 55.0429 28.4406C52.3763 33.3529 47.9233 35.4007 42.4305 34.8839C36.9377 34.3672 33.4417 31.1583 31.598 26.0546C30.9484 24.3104 30.6262 22.4613 30.6475 20.6001ZM50.4241 20.6001C50.4657 18.5444 50.2796 16.4904 49.8691 14.4757C49.4417 12.3194 48.8037 10.2333 47.3173 8.53633C45.1929 6.15037 42.086 6.24607 40.0956 8.74048C39.3696 9.66136 38.8242 10.7111 38.488 11.8346C37.1074 16.4841 37.017 21.4215 38.2264 26.1184C38.7368 28.3002 39.5406 30.3608 41.2886 31.8983C41.7523 32.3523 42.3094 32.6997 42.9211 32.9165C43.5328 33.1332 44.1844 33.214 44.8305 33.1533C45.4766 33.0926 46.1017 32.8918 46.6622 32.5649C47.2228 32.2379 47.7054 31.7928 48.0765 31.2604C48.6331 30.5169 49.0642 29.6872 49.3524 28.8042C50.1873 26.149 50.5501 23.3679 50.4241 20.5873V20.6001Z" fill="white"/>
<path d="M22.922 24.6693C22.8391 20.1334 23.0688 15.6932 22.7115 11.2722C22.6605 10.6789 22.5967 10.0792 22.5137 9.48589C22.4825 8.9687 22.2759 8.47763 21.9279 8.09373C21.58 7.70982 21.1115 7.45603 20.5999 7.37425C20.1675 7.25145 19.7221 7.18077 19.2729 7.16372C18.4436 7.19562 18.501 6.70439 18.4755 6.13023C18.4755 5.37106 18.9731 5.61349 19.3303 5.60711C22.2586 5.60711 25.1804 5.60711 28.1023 5.60711C28.4212 5.60711 28.9061 5.43486 28.8295 6.06644C28.7785 6.50025 29.0847 7.02337 28.1916 7.1382C25.9842 7.43166 25.5632 7.99945 25.3782 10.2259C24.7402 18.0792 25.1485 25.9388 25.0592 33.8303C25.0592 34.7171 24.8104 34.8702 23.9747 34.8893C23.5669 34.9243 23.1575 34.845 22.7924 34.6602C22.4273 34.4753 22.1209 34.1924 21.9077 33.8431C16.804 26.9659 11.6855 20.1036 6.55207 13.2562C6.27137 13.4348 6.40534 13.7028 6.40534 13.8942C6.44999 18.5385 6.25861 23.1892 6.57121 27.8399C6.62225 28.6756 6.67327 29.5114 6.78173 30.3471C6.99225 31.9802 7.90453 32.6629 9.97151 32.8351C10.4117 32.8351 10.9348 32.7267 10.9157 33.5369C10.9157 34.2322 10.7371 34.4428 10.0162 34.43C7.08795 34.3853 4.1661 34.43 1.23788 34.43C0.874247 34.43 0.331985 34.6469 0.40216 33.8941C0.446817 33.3901 0.242667 32.8798 1.13581 32.8223C2.95398 32.7139 3.68763 31.9101 3.86626 30.1174C4.50422 24.3758 4.18524 18.6661 4.24904 12.9436C4.24904 12.3439 4.24904 11.7443 4.24904 11.1446C4.29254 10.1866 3.96561 9.24864 3.33606 8.52526C2.70652 7.80188 1.82268 7.34859 0.867876 7.25942C0.102327 7.15096 -0.0507799 6.8256 0.0130158 6.14937C0.0449136 5.78573 0.108695 5.62625 0.516988 5.63263C2.83915 5.63263 5.16132 5.63263 7.48348 5.63263C7.94281 5.63263 8.12144 5.91333 8.31921 6.18765L22.2522 24.1206C22.4149 24.367 22.6485 24.5583 22.922 24.6693Z" fill="white"/>
<path d="M187.298 34.3794H177.257C176.816 34.3794 176.395 34.4368 176.453 33.7414C176.497 33.2438 176.338 32.6952 177.174 32.7398C177.605 32.7391 178.034 32.679 178.45 32.5612C178.907 32.5282 179.336 32.3265 179.653 31.9953C179.97 31.664 180.153 31.2269 180.166 30.7685C180.261 30.1349 180.31 29.4953 180.312 28.8547C180.312 22.8536 180.312 16.8504 180.312 10.8451C180.312 10.456 180.312 10.0668 180.312 9.67767C180.159 7.84036 179.674 7.32361 177.812 7.12584C177.244 7.06843 176.957 6.94722 176.963 6.28374C176.97 5.62027 177.161 5.49268 177.786 5.49268C183.936 5.49268 190.086 5.49268 196.236 5.49268C196.918 5.49268 197.11 5.69682 197.142 6.34116C197.225 7.98709 197.384 9.62664 197.486 11.2726C197.486 11.5596 197.671 12.0381 197.116 11.9807C196.561 11.9233 196.038 12.523 195.713 11.5852C194.437 7.84036 193.831 7.44482 189.85 7.32361C189.04 7.32361 188.223 7.32361 187.406 7.32361C187.252 7.2982 187.093 7.31108 186.944 7.36111C186.795 7.41114 186.661 7.49681 186.552 7.61065C186.444 7.7245 186.365 7.86307 186.323 8.0143C186.281 8.16553 186.276 8.32483 186.309 8.47831C186.309 11.6298 186.309 14.7813 186.309 17.9328C186.309 18.2135 186.373 18.3858 186.705 18.3794C188.185 18.3794 189.658 18.3794 191.17 18.3028C192.682 18.2263 193.269 17.3204 193.467 16.0636C193.614 15.1067 194.156 15.0429 194.909 15.1003C195.266 15.1003 195.362 15.2789 195.362 15.6043C195.362 18.2135 195.362 20.8228 195.362 23.4384C195.362 23.6936 195.362 23.9679 194.998 23.9169C194.558 23.8467 194.016 24.2167 193.722 23.6425C193.657 23.4742 193.612 23.2986 193.588 23.1194C193.059 21.0652 192.51 20.6059 190.399 20.5676C189.25 20.5293 188.102 20.5676 186.96 20.5676C186.654 20.5676 186.322 20.5229 186.367 21.0014C186.456 24.1912 186.194 27.4193 186.526 30.6218C186.528 31.0639 186.695 31.4894 186.995 31.8141C187.295 32.1389 187.706 32.3395 188.147 32.3762C189.931 32.6701 191.752 32.6701 193.537 32.3762C194.556 32.1897 195.46 31.6071 196.051 30.7558C196.782 29.7641 197.377 28.6783 197.818 27.5277C198.131 26.7111 198.654 27.2661 199.094 27.2725C199.534 27.2789 199.662 27.617 199.572 28.0253C199.151 29.9902 198.717 31.9487 198.296 33.92C198.182 34.4751 197.824 34.4368 197.422 34.4368L187.298 34.3794Z" fill="white"/>
<path d="M117.875 5.0016C119.748 4.99564 121.609 5.29074 123.387 5.8756C123.544 5.89954 123.687 5.97557 123.795 6.09136C123.903 6.20716 123.968 6.35593 123.981 6.51356C124.21 8.23604 124.466 9.95852 124.714 11.6746C124.765 12.051 124.836 12.4083 124.261 12.421C123.687 12.4338 123.222 12.9123 122.986 12.051C122.6 10.8521 122.008 9.72956 121.238 8.73365C119.426 6.36683 116.242 6.05423 114.411 8.05103C113.734 8.84437 113.345 9.84368 113.308 10.8862C113.271 11.9288 113.588 12.9532 114.207 13.7926C115.206 14.9621 116.438 15.9096 117.824 16.5741C119.485 17.4237 121.078 18.3983 122.59 19.4896C126.756 22.7368 127.362 28.051 123.93 31.7894C122.016 33.8436 119.553 34.6985 116.836 34.9154C114.249 35.1249 111.65 34.7114 109.257 33.7097C109.046 33.6416 108.857 33.5181 108.71 33.352C108.563 33.1859 108.463 32.9833 108.421 32.7655C107.93 30.8516 107.694 28.8229 107.394 26.8389C107.254 25.9074 108.089 26.1371 108.529 25.9074C109.097 25.614 109.084 26.1562 109.167 26.4433C109.834 28.3168 110.906 30.0202 112.306 31.4322C113.239 32.3906 114.478 32.9931 115.809 33.1355C119.311 33.4098 121.55 30.2264 120.274 26.9154C119.791 25.8094 119.023 24.8516 118.048 24.1403C116.754 23.2088 115.399 22.3669 113.99 21.6204C112.877 20.9611 111.826 20.2008 110.852 19.3492C109.776 18.4445 108.96 17.2702 108.488 15.9465C108.016 14.6229 107.903 13.1974 108.163 11.8162C108.423 10.435 109.045 9.14755 109.966 8.08577C110.886 7.02399 112.073 6.22601 113.403 5.77353C114.826 5.21433 116.348 4.95165 117.875 5.0016Z" fill="white"/>
<path d="M105.525 0.127496C104.019 2.17534 102.565 4.153 101.104 6.12429L91.6875 18.8834C91.5114 19.0841 91.2946 19.2448 91.0515 19.355C90.8084 19.4651 90.5445 19.5221 90.2776 19.5221C90.0107 19.5221 89.7468 19.4651 89.5037 19.355C89.2605 19.2448 89.0437 19.0841 88.8677 18.8834C86.6306 15.8382 84.3829 12.7973 82.1245 9.76064C82.0392 9.68469 81.9703 9.59206 81.9222 9.48845C81.8741 9.38486 81.8478 9.27249 81.8448 9.1583C81.8418 9.04411 81.8622 8.93052 81.9048 8.82455C81.9475 8.71857 82.0114 8.62246 82.0926 8.54215C84.0575 5.9329 85.9905 3.28538 87.9299 0.657C88.0212 0.469538 88.1624 0.310842 88.338 0.19831C88.5135 0.0857773 88.7166 0.0237548 88.9251 0.019043C94.3541 0.019043 99.7704 0.019043 105.212 0.019043C105.32 0.0453736 105.424 0.0816825 105.525 0.127496Z" fill="white"/>
<path d="M105.359 39.8981C104.97 39.8981 104.587 39.8343 104.198 39.8343L88.4465 39.8726C86.8772 38.0608 85.5758 36.0448 84.1148 34.131C83.4003 33.2059 82.7305 32.2171 82.0287 31.3112C81.964 31.2547 81.9113 31.1858 81.8739 31.1085C81.8364 31.0312 81.815 30.9472 81.8108 30.8614C81.8066 30.7756 81.8199 30.6898 81.8496 30.6093C81.8794 30.5287 81.9251 30.455 81.984 30.3925C84.319 27.2729 86.6156 24.1278 88.9378 20.9954C89.4673 20.2745 91.1196 20.3064 91.6619 21.0337C96.1318 27.09 100.598 33.1464 105.059 39.2027C105.218 39.4069 105.525 39.5664 105.359 39.8981Z" fill="white"/>
<path d="M204.925 19.936C204.925 16.5739 204.957 13.2119 204.925 9.85625C204.925 7.94237 204.287 7.39373 202.373 7.19596C201.882 7.14493 201.461 7.15131 201.474 6.41128C201.486 5.67125 201.671 5.56917 202.341 5.57555C206.112 5.60745 209.882 5.57555 213.646 5.57555C214.041 5.57555 214.513 5.41607 214.488 6.13696C214.488 6.72388 214.488 7.12579 213.684 7.18959C211.585 7.36183 211.069 7.93599 211.043 10.0285C210.954 16.625 210.954 23.2172 211.043 29.8052C211.043 31.802 211.56 32.2677 213.55 32.4335C214.599 32.5346 215.656 32.5175 216.702 32.3825C217.363 32.3196 218 32.1049 218.564 31.7553C219.129 31.4056 219.605 30.9303 219.955 30.3666C220.572 29.4091 221.081 28.3865 221.474 27.3171C221.69 26.6792 222.035 26.7876 222.52 26.9025C223.005 27.0173 223.324 27.1768 223.158 27.7956C222.732 29.7562 222.328 31.7212 221.946 33.6903C221.856 34.156 221.678 34.3283 221.174 34.3283C214.692 34.3283 208.21 34.3283 201.729 34.3283C201.212 34.3283 201.014 34.1688 201.091 33.6903C201.148 33.2884 200.899 32.8227 201.665 32.7398C204.593 32.4463 204.957 32.0189 204.97 29.0843C204.97 26.0285 204.97 22.9663 204.97 19.9041L204.925 19.936Z" fill="white"/>
<path d="M170.258 19.9937C170.258 23.3876 170.048 26.7752 170.258 30.1627C170.392 32.1212 170.896 32.5997 172.88 32.7528C173.678 32.8166 173.582 33.2377 173.62 33.7544C173.665 34.3924 173.282 34.3924 172.829 34.3924H161.544C161.072 34.3924 160.702 34.3924 160.772 33.7544C160.823 33.3015 160.644 32.8485 161.41 32.7783C163.624 32.5869 164.159 31.9745 164.166 29.7289C164.166 23.192 164.166 16.6529 164.166 10.1117C164.166 8.03837 163.585 7.39403 161.544 7.22816C160.734 7.16437 160.765 6.74969 160.746 6.16915C160.746 5.44826 161.199 5.61413 161.588 5.61413H172.804C173.212 5.61413 173.678 5.49292 173.614 6.20105C173.576 6.70504 173.703 7.15799 172.899 7.23454C170.775 7.41955 170.348 7.78318 170.265 9.85654C170.182 13.2186 170.258 16.6061 170.258 19.9937Z" fill="white"/>
<path d="M65.0591 0.0574162C67.7704 0.0574162 70.4817 0.0574161 73.193 0C73.7991 0 73.9394 0.45295 74.1819 0.784687C77.9075 5.82029 81.6311 10.8623 85.3525 15.9106C86.1818 17.0398 87.0176 18.1626 87.9043 19.4003H79.1771C79.1677 19.3409 79.1505 19.2829 79.126 19.228L69.4929 6.1499C68.0065 4.1212 66.4371 2.15629 65.0591 0.0574162Z" fill="white"/>
<path d="M65.0591 0.0571289C66.437 2.15601 68.0064 4.12091 69.4929 6.14962L79.1324 19.2277C79.1569 19.2826 79.1741 19.3406 79.1834 19.4C76.5338 19.4 73.882 19.4 71.2281 19.4C71.0819 19.4149 70.9345 19.3895 70.8018 19.3265C70.6691 19.2635 70.5562 19.1654 70.4753 19.0427L56.6189 0.299553C56.6189 0.261275 56.6189 0.1911 56.6189 0.0571289H65.0591Z" fill="white"/>
</svg>
