<svg width="537" height="86" viewBox="0 0 537 86" fill="none" xmlns="http://www.w3.org/2000/svg">
<path d="M536.337 44.1039C535.892 45.6108 535.592 47.1574 535.444 48.7221C532.464 61.9249 523.838 69.2462 510.959 72.0715C507.199 72.85 503.368 73.2233 499.529 73.1853H478.416C477.428 73.1853 476.683 73.1853 476.778 71.827C476.859 70.6996 476.696 69.8303 478.376 69.7488C483.319 69.4907 484.768 68.0237 484.781 63.1202C484.862 49.3877 484.781 35.6552 484.781 21.9227C484.776 21.4674 484.736 21.0132 484.659 20.5643C484.131 16.5709 483.305 15.7423 479.242 15.2669C478.376 15.1719 477.495 15.2669 477.455 13.9086C477.414 12.5503 477.671 11.8168 479.391 11.844C488.031 11.9391 496.672 11.844 505.298 11.844C509.334 11.8368 513.353 12.3806 517.243 13.4604C528.239 16.5981 533.968 24.3269 535.918 35.1934C535.918 35.6008 535.755 36.1306 536.324 36.3615L536.337 44.1039ZM497.552 40.8983C497.552 47.6898 497.552 54.4814 497.552 61.2729C497.543 62.5475 497.68 63.8189 497.958 65.0626C498.117 66.1897 498.676 67.2216 499.531 67.9698C500.387 68.718 501.482 69.1325 502.617 69.1375C504.206 69.3011 505.811 69.2048 507.37 68.8523C509.965 68.235 512.369 66.9866 514.37 65.217C516.37 63.4475 517.906 61.2113 518.841 58.7057C521.024 53.6515 522.184 48.2126 522.254 42.705C522.323 37.1973 521.301 31.7306 519.247 26.6224C516.322 19.1245 509.767 15.3756 501.804 15.7559C498.351 15.9461 497.579 16.7339 497.565 20.2384C497.538 27.1114 497.552 34.0116 497.552 40.8983Z" fill="#2970A5"/>
<path d="M120.027 85.1387C120.101 84.5063 120.393 83.9198 120.853 83.4815C130.279 70.6681 139.7 57.8638 149.117 45.0685C149.393 44.6081 149.795 44.236 150.274 43.9955C150.754 43.755 151.292 43.6561 151.825 43.7102C157.242 43.8053 162.659 43.7781 168.076 43.8053C168.046 43.9946 167.987 44.1779 167.9 44.3486L153.613 63.691C148.954 69.9845 144.309 76.3006 139.677 82.6394C139.258 83.2235 138.323 83.8755 138.757 84.5546C139.19 85.2338 140.111 84.8127 140.91 84.8127C145.189 84.8127 149.469 84.8127 153.748 84.8127C154.425 84.8127 155.102 84.541 155.752 85.1658L120.027 85.1387Z" fill="#DC3E3C"/>
<path d="M155.793 85.139C155.211 84.5141 154.439 84.7858 153.789 84.7858C149.509 84.7858 145.23 84.7858 140.95 84.7858C140.206 84.7858 139.176 85.1797 138.797 84.5277C138.418 83.8757 139.298 83.1694 139.718 82.6125C144.35 76.2737 148.995 69.9757 153.653 63.7184L167.886 44.3353C167.973 44.1646 168.033 43.9813 168.063 43.792H186.277C186.453 44.4576 185.884 44.7971 185.573 45.2182C176.066 58.1584 166.555 71.085 157.039 83.998C156.795 84.324 156.308 84.5685 156.511 85.1254L155.793 85.139Z" fill="#A33332"/>
<path d="M187.618 85.1385C187.658 85.0544 187.703 84.973 187.754 84.8947L221.19 84.8135C222.016 84.8135 222.829 84.9083 223.655 84.9489H223.777V85.0708L187.618 85.1385Z" fill="#A33332"/>
<path d="M279.856 42.5828V23.417C279.856 22.7107 279.856 22.0587 279.856 21.3117C279.666 16.9243 278.502 15.729 274.1 15.3079C273.274 15.2264 272.15 15.6339 272.11 13.9496C272.069 12.2653 272.34 11.7763 274.141 11.8035C282.009 11.9257 289.877 11.8035 297.759 11.8035C298.599 11.8035 299.587 11.4911 299.52 13.026C299.452 14.2485 299.52 15.1449 297.827 15.2808C294.035 15.566 293.073 16.6391 292.789 20.4152C292.383 25.8484 292.667 31.2817 292.545 36.7149C292.545 37.8695 293.033 38.0732 294.048 38.0732C300.368 38.0732 306.688 38.0732 313.008 38.0732C314.078 38.0732 314.443 37.7608 314.443 36.7149C314.443 31.4175 314.443 26.1201 314.443 20.8091C314.376 16.8564 313.17 15.7018 309.135 15.2944C307.415 15.1178 306.792 14.1126 307.307 12.4691C307.604 11.5047 308.349 11.8986 308.905 11.885C315.364 11.885 321.824 11.885 328.284 11.885C329.814 11.885 331.358 11.885 332.888 11.885C333.836 11.885 334.933 11.4775 334.893 13.2433C334.893 14.6831 334.513 15.1993 333.01 15.3079C328.392 15.6203 327.349 16.8836 327.336 22.0995C327.336 32.8301 327.336 43.5608 327.336 54.2914C327.336 57.4835 327.268 60.6755 327.417 63.7996C327.62 68.1055 328.649 69.2329 332.834 69.6268C334.757 69.7762 334.757 70.6863 334.716 72.0717C334.716 72.9411 334.31 73.1312 333.538 73.1312C325.088 73.1312 316.637 73.1312 308.2 73.1312C307.022 73.1312 306.968 72.4928 307.049 71.6642C307.13 70.8357 306.602 69.9256 308.119 69.7083C313.848 68.9205 314.457 68.1462 314.457 62.3598C314.457 56.5734 314.457 50.4746 314.457 44.5388C314.457 43.1805 314.078 42.8273 312.751 42.8545C306.548 42.8545 300.332 42.8545 294.13 42.8545C292.884 42.8545 292.491 43.1805 292.518 44.4437C292.654 50.7598 292.396 57.0896 292.694 63.46C292.911 68.2413 293.737 69.2872 298.504 69.7354C300.251 69.8984 299.655 70.9851 299.777 71.8816C299.953 73.104 299.262 73.2399 298.301 73.2399C290.175 73.2399 282.05 73.2399 273.924 73.2399C272.922 73.2399 272.313 73.0769 272.435 71.8816C272.543 70.9443 272.055 69.749 273.789 69.7898C274.706 69.7801 275.618 69.643 276.497 69.3823C277.24 69.2275 277.92 68.8561 278.452 68.3147C278.985 67.7734 279.346 67.0862 279.49 66.3397C279.767 64.9631 279.89 63.5599 279.856 62.1561V42.5828Z" fill="#2970A5"/>
<path d="M65.0587 43.8598C65.0587 34.7863 67.1443 27.5601 71.83 21.1624C82.5692 6.45193 109.288 5.89502 118.199 26.5957C120.666 31.9603 121.829 37.835 121.594 43.7379C121.359 49.6408 119.731 55.4036 116.845 60.5534C111.184 71.0124 101.732 75.3726 90.0717 74.2724C78.4116 73.1721 70.9903 66.3398 67.0766 55.4734C65.6976 51.7596 65.0135 47.8225 65.0587 43.8598ZM107.04 43.8598C107.129 39.4829 106.734 35.1097 105.862 30.82C104.955 26.2289 103.601 21.7873 100.445 18.1741C95.9356 13.0941 89.3404 13.2978 85.1152 18.6088C83.574 20.5695 82.4161 22.8047 81.7025 25.1966C78.7719 35.0962 78.58 45.6086 81.1472 55.6092C82.2306 60.2546 83.9369 64.642 87.6476 67.9155C88.632 68.8821 89.8146 69.6218 91.1131 70.0833C92.4115 70.5448 93.7947 70.7169 95.1662 70.5876C96.5377 70.4583 97.8647 70.0307 99.0547 69.3347C100.245 68.6386 101.269 67.6908 102.057 66.5572C103.239 64.9742 104.153 63.2076 104.765 61.3277C106.538 55.6743 107.308 49.7529 107.04 43.8326V43.8598Z" fill="#671E1C"/>
<path d="M48.6587 52.5258C48.4826 42.8683 48.9701 33.4144 48.2118 24.0013C48.1034 22.7381 47.968 21.4613 47.7919 20.1981C47.7256 19.0969 47.287 18.0513 46.5483 17.2339C45.8097 16.4165 44.8153 15.8762 43.7292 15.702C42.8114 15.4406 41.8658 15.2901 40.9124 15.2538C39.1519 15.3217 39.2737 14.2758 39.2196 13.0533C39.2196 11.437 40.2759 11.9531 41.0343 11.9395C47.2503 11.9395 53.4527 11.9395 59.6552 11.9395C60.3323 11.9395 61.3615 11.5728 61.199 12.9175C61.0906 13.8412 61.7407 14.955 59.8447 15.1995C55.159 15.8243 54.2652 17.0332 53.8725 21.7737C52.5182 38.4945 53.385 55.2289 53.1954 72.0312C53.1954 73.9192 52.6672 74.2452 50.8932 74.286C50.0276 74.3605 49.1585 74.1916 48.3834 73.7981C47.6083 73.4045 46.958 72.8021 46.5054 72.0584C35.6714 57.4158 24.8059 42.8049 13.9087 28.2257C13.3128 28.606 13.5972 29.1765 13.5972 29.584C13.692 39.4725 13.2857 49.3746 13.9493 59.2766C14.0576 61.056 14.166 62.8354 14.3962 64.6148C14.8431 68.0921 16.7797 69.5455 21.1674 69.9122C22.1019 69.9122 23.2124 69.6813 23.1717 71.4064C23.1717 72.8869 22.7925 73.3352 21.2622 73.308C15.0462 73.2129 8.84376 73.308 2.62776 73.308C1.85584 73.308 0.704734 73.7698 0.853701 72.167C0.948498 71.094 0.515131 70.0073 2.41108 69.8851C6.27068 69.6541 7.82807 67.9427 8.20726 64.1258C9.56151 51.901 8.88439 39.7441 9.01981 27.5601C9.01981 26.2833 9.01981 25.0065 9.01981 23.7297C9.11215 21.69 8.41815 19.6929 7.08176 18.1527C5.74537 16.6125 3.86917 15.6474 1.84232 15.4576C0.217219 15.2266 -0.107795 14.5339 0.0276297 13.0941C0.0953421 12.3199 0.230737 11.9803 1.09746 11.9939C6.02692 11.9939 10.9564 11.9939 15.8859 11.9939C16.8609 11.9939 17.2401 12.5915 17.6599 13.1756L47.2367 51.3577C47.5821 51.8823 48.0779 52.2895 48.6587 52.5258Z" fill="#671E1C"/>
<path d="M397.594 73.1996H376.278C375.344 73.1996 374.45 73.3219 374.572 71.8413C374.667 70.7818 374.328 69.6137 376.102 69.7088C377.018 69.7072 377.929 69.5793 378.811 69.3284C379.781 69.2581 380.692 68.8287 381.365 68.1235C382.038 67.4183 382.426 66.4875 382.453 65.5116C382.655 64.1626 382.759 62.8007 382.765 61.4366C382.765 48.6595 382.765 35.8778 382.765 23.0915C382.765 22.263 382.765 21.4344 382.765 20.6058C382.44 16.6939 381.411 15.5937 377.456 15.1726C376.251 15.0503 375.642 14.7923 375.655 13.3796C375.669 11.967 376.075 11.6953 377.402 11.6953C390.457 11.6953 403.512 11.6953 416.567 11.6953C418.016 11.6953 418.422 12.13 418.49 13.5019C418.666 17.0063 419.005 20.4972 419.221 24.0016C419.221 24.6128 419.614 25.6316 418.436 25.5093C417.258 25.3871 416.147 26.6639 415.456 24.6672C412.748 16.6939 411.461 15.8517 403.011 15.5937C401.291 15.5937 399.558 15.5937 397.824 15.5937C397.495 15.5396 397.158 15.567 396.842 15.6735C396.526 15.78 396.241 15.9624 396.011 16.2048C395.781 16.4472 395.614 16.7423 395.524 17.0643C395.434 17.3862 395.424 17.7254 395.495 18.0522C395.495 24.7623 395.495 31.4723 395.495 38.1824C395.495 38.78 395.63 39.1468 396.335 39.1332C399.476 39.1332 402.605 39.1332 405.814 38.9702C409.024 38.8072 410.27 36.8784 410.69 34.2025C411.001 32.1651 412.152 32.0292 413.75 32.1515C414.508 32.1515 414.712 32.5318 414.712 33.2245C414.712 38.78 414.712 44.3355 414.712 49.9046C414.712 50.4479 414.712 51.032 413.94 50.9233C413.005 50.7739 411.854 51.5617 411.231 50.3392C411.092 49.9808 410.997 49.6068 410.947 49.2254C409.823 44.8517 408.658 43.8737 404.176 43.7922C401.738 43.7107 399.3 43.7922 396.876 43.7922C396.226 43.7922 395.522 43.6971 395.617 44.7158C395.806 51.5074 395.251 58.3804 395.955 65.1992C395.959 66.1405 396.314 67.0463 396.951 67.7379C397.588 68.4294 398.46 68.8564 399.395 68.9345C403.184 69.5604 407.05 69.5604 410.839 68.9345C413.002 68.5375 414.921 67.297 416.174 65.4844C417.727 63.373 418.989 61.0611 419.925 58.6114C420.589 56.8727 421.7 58.0545 422.634 58.068C423.568 58.0816 423.839 58.8015 423.65 59.6708C422.756 63.8544 421.835 68.0245 420.941 72.2216C420.697 73.4034 419.939 73.3219 419.086 73.3219L397.594 73.1996Z" fill="#2970A5"/>
<path d="M250.225 10.6495C254.199 10.6368 258.15 11.2651 261.926 12.5104C262.258 12.5613 262.562 12.7232 262.791 12.9698C263.02 13.2163 263.159 13.5331 263.185 13.8687C263.673 17.5361 264.214 21.2036 264.743 24.8574C264.851 25.6588 265 26.4195 263.781 26.4466C262.562 26.4738 261.574 27.4925 261.073 25.6588C260.254 23.1062 258.998 20.7161 257.362 18.5956C253.516 13.5563 246.758 12.8907 242.871 17.1422C241.433 18.8313 240.608 20.959 240.529 23.1788C240.45 25.3986 241.123 27.5797 242.438 29.367C244.558 31.8569 247.173 33.8742 250.117 35.2892C253.641 37.0981 257.023 39.1732 260.233 41.4967C269.076 48.4105 270.363 59.7252 263.077 67.6849C259.014 72.0587 253.787 73.8788 248.018 74.3407C242.527 74.7867 237.01 73.9064 231.929 71.7735C231.481 71.6286 231.08 71.3656 230.768 71.0119C230.456 70.6582 230.244 70.2269 230.155 69.7631C229.112 65.6882 228.611 61.3688 227.975 57.1444C227.677 55.1613 229.451 55.6503 230.385 55.1613C231.591 54.5365 231.564 55.6911 231.74 56.3023C233.155 60.2912 235.43 63.918 238.402 66.9243C240.384 68.9651 243.013 70.2478 245.837 70.551C253.272 71.135 258.025 64.3571 255.317 57.3074C254.292 54.9525 252.66 52.9133 250.591 51.3988C247.845 49.4155 244.967 47.6229 241.978 46.0335C239.614 44.6297 237.383 43.011 235.315 41.1979C233.032 39.2715 231.3 36.7712 230.297 33.9529C229.295 31.1347 229.057 28.0997 229.608 25.1588C230.159 22.218 231.479 19.4769 233.434 17.2162C235.389 14.9555 237.907 13.2564 240.732 12.293C243.751 11.1024 246.982 10.5431 250.225 10.6495Z" fill="#2970A5"/>
<path d="M224.007 0.27144C220.811 4.63162 217.723 8.84238 214.622 13.0396L194.633 40.2058C194.26 40.633 193.799 40.9752 193.283 41.2097C192.767 41.4442 192.207 41.5655 191.64 41.5655C191.074 41.5655 190.514 41.4442 189.998 41.2097C189.482 40.9752 189.021 40.633 188.648 40.2058C183.899 33.7221 179.127 27.2475 174.333 20.7819C174.152 20.6202 174.006 20.423 173.904 20.2024C173.802 19.9818 173.746 19.7426 173.739 19.4994C173.733 19.2563 173.776 19.0145 173.867 18.7888C173.957 18.5632 174.093 18.3586 174.265 18.1876C178.437 12.6321 182.54 6.99508 186.657 1.39884C186.851 0.999703 187.15 0.661813 187.523 0.422214C187.896 0.182615 188.327 0.0505596 188.769 0.0405273C200.294 0.0405273 211.792 0.0405273 223.343 0.0405273C223.571 0.0965894 223.793 0.173897 224.007 0.27144Z" fill="#242122"/>
<path d="M223.655 84.9484C222.828 84.9484 222.016 84.8125 221.19 84.8125L187.753 84.8941C184.422 81.0365 181.659 76.7442 178.558 72.6693C177.041 70.6997 175.619 68.5943 174.13 66.6655C173.992 66.5453 173.881 66.3985 173.801 66.234C173.722 66.0694 173.676 65.8904 173.667 65.7078C173.658 65.5251 173.686 65.3426 173.75 65.171C173.813 64.9995 173.91 64.8425 174.035 64.7096C178.991 58.0674 183.867 51.3709 188.796 44.7016C189.92 43.1667 193.428 43.2347 194.579 44.7831C204.068 57.678 213.547 70.5729 223.018 83.4678C223.357 83.9025 224.007 84.2421 223.655 84.9484Z" fill="#242122"/>
<path d="M435.012 42.4474C435.012 35.2891 435.08 28.1308 435.012 20.9861C435.012 16.9111 433.658 15.743 429.595 15.3219C428.552 15.2132 427.659 15.2268 427.686 13.6512C427.713 12.0755 428.106 11.8582 429.527 11.8718C437.531 11.9397 445.535 11.8718 453.525 11.8718C454.364 11.8718 455.366 11.5322 455.312 13.0671C455.312 14.3168 455.312 15.1725 453.606 15.3083C449.15 15.6751 448.054 16.8975 447.999 21.3528C447.81 35.3977 447.81 49.4336 447.999 63.4604C447.999 67.7119 449.096 68.7035 453.322 69.0567C455.549 69.2718 457.793 69.2354 460.012 68.948C461.415 68.814 462.768 68.357 463.966 67.6125C465.164 66.868 466.174 65.8561 466.918 64.6557C468.228 62.6173 469.309 60.4398 470.141 58.163C470.602 56.8047 471.333 57.0356 472.362 57.2801C473.392 57.5246 474.069 57.8642 473.717 59.1818C472.814 63.3563 471.956 67.5399 471.143 71.7325C470.954 72.7241 470.575 73.0909 469.505 73.0909C455.746 73.0909 441.987 73.0909 428.227 73.0909C427.13 73.0909 426.711 72.7513 426.873 71.7325C426.995 70.8768 426.467 69.8852 428.092 69.7087C434.308 69.0838 435.08 68.1738 435.107 61.9255C435.107 55.4192 435.107 48.8993 435.107 42.3795L435.012 42.4474Z" fill="#2970A5"/>
<path d="M361.422 42.5699C361.422 49.7961 360.975 57.0087 361.422 64.2213C361.706 68.3913 362.776 69.4101 366.988 69.7361C368.681 69.8719 368.477 70.7684 368.559 71.8686C368.653 73.2269 367.841 73.2269 366.879 73.2269H342.923C341.921 73.2269 341.135 73.2269 341.284 71.8686C341.392 70.9042 341.013 69.9398 342.638 69.7904C347.338 69.3829 348.475 68.0789 348.489 63.2977C348.489 49.3795 348.489 35.4568 348.489 21.5296C348.489 17.1151 347.256 15.7432 342.923 15.3901C341.203 15.2542 341.271 14.3713 341.23 13.1353C341.23 11.6004 342.192 11.9535 343.018 11.9535H366.825C367.692 11.9535 368.681 11.6955 368.545 13.2032C368.464 14.2762 368.735 15.2406 367.028 15.4036C362.519 15.7976 361.611 16.5718 361.435 20.9863C361.259 28.1446 361.422 35.3572 361.422 42.5699Z" fill="#2970A5"/>
<path d="M138.107 0.122248C143.862 0.122248 149.618 0.122248 155.374 0C156.66 0 156.958 0.964401 157.473 1.67072C165.381 12.3923 173.286 23.1275 181.186 33.8763C182.946 36.2805 184.72 38.6711 186.603 41.3062H168.076C168.057 41.1797 168.02 41.0564 167.968 40.9395L147.519 13.0941C144.364 8.77468 141.032 4.59109 138.107 0.122248Z" fill="#A33332"/>
<path d="M138.107 0.121582C141.032 4.59042 144.364 8.77402 147.519 13.0934L167.982 40.9388C168.034 41.0557 168.07 41.1791 168.09 41.3056C162.466 41.3056 156.836 41.3056 151.203 41.3056C150.892 41.3373 150.579 41.2832 150.298 41.1491C150.016 41.015 149.776 40.806 149.605 40.5449L120.19 0.63774C120.19 0.556242 120.19 0.406827 120.19 0.121582H138.107Z" fill="#DC3E3C"/>
</svg>
