<svg width="333" height="53" viewBox="0 0 333 53" fill="none" xmlns="http://www.w3.org/2000/svg">
<path d="M332.531 27.3449C332.255 28.2792 332.069 29.2381 331.977 30.2082C330.13 38.394 324.781 42.9332 316.796 44.6849C314.465 45.1676 312.09 45.3991 309.71 45.3755H296.62C296.007 45.3755 295.545 45.3755 295.604 44.5333C295.654 43.8343 295.553 43.2954 296.594 43.2448C299.659 43.0848 300.558 42.1753 300.566 39.1351C300.616 30.6209 300.566 22.1067 300.566 13.5924C300.563 13.3102 300.538 13.0286 300.49 12.7503C300.163 10.2743 299.651 9.76063 297.132 9.46588C296.594 9.40692 296.049 9.46588 296.023 8.62372C295.998 7.78156 296.158 7.32679 297.224 7.34364C302.581 7.40259 307.938 7.34364 313.286 7.34364C315.789 7.33919 318.28 7.67634 320.692 8.34581C327.51 10.2912 331.062 15.0831 332.271 21.8203C332.271 22.073 332.17 22.4014 332.523 22.5446L332.531 27.3449ZM308.484 25.3574C308.484 29.5682 308.484 33.779 308.484 37.9898C308.478 38.78 308.563 39.5683 308.736 40.3394C308.834 41.0382 309.181 41.678 309.711 42.1419C310.241 42.6058 310.92 42.8627 311.624 42.8659C312.609 42.9673 313.605 42.9075 314.571 42.689C316.18 42.3063 317.671 41.5323 318.911 40.4351C320.151 39.338 321.103 37.9515 321.683 36.3981C323.036 33.2645 323.756 29.8923 323.799 26.4776C323.842 23.0628 323.209 19.6734 321.935 16.5063C320.121 11.8576 316.057 9.53325 311.12 9.76905C308.979 9.88696 308.501 10.3754 308.492 12.5482C308.475 16.8095 308.484 21.0877 308.484 25.3574Z" fill="#2970A5"/>
<path d="M74.4175 52.7864C74.4629 52.3943 74.6442 52.0307 74.9296 51.759C80.7735 43.8147 86.6146 35.8759 92.4529 27.9428C92.6246 27.6573 92.8735 27.4266 93.1708 27.2775C93.4681 27.1284 93.8015 27.0671 94.1322 27.1006C97.4907 27.1596 100.849 27.1427 104.208 27.1596C104.189 27.2769 104.153 27.3906 104.099 27.4964L95.2405 39.4888C92.3522 43.3908 89.4722 47.3068 86.6006 51.2369C86.3403 51.599 85.761 52.0032 86.0297 52.4243C86.2983 52.8454 86.8693 52.5843 87.3647 52.5843C90.018 52.5843 92.6712 52.5843 95.3245 52.5843C95.7443 52.5843 96.1641 52.4159 96.5671 52.8033L74.4175 52.7864Z" fill="#DC3E3C"/>
<path d="M96.5925 52.7865C96.2314 52.3991 95.7528 52.5675 95.3498 52.5675C92.6965 52.5675 90.0433 52.5675 87.39 52.5675C86.9282 52.5675 86.2901 52.8117 86.055 52.4075C85.8199 52.0032 86.3657 51.5653 86.6259 51.22C89.4975 47.29 92.3775 43.3852 95.2658 39.5056L104.09 27.488C104.144 27.3822 104.181 27.2685 104.2 27.1512H115.493C115.602 27.5638 115.249 27.7744 115.056 28.0354C109.162 36.0584 103.265 44.0729 97.3649 52.079C97.2138 52.2812 96.9115 52.4327 97.0375 52.778L96.5925 52.7865Z" fill="#A33332"/>
<path d="M116.324 52.7859C116.348 52.7338 116.377 52.6833 116.408 52.6347L137.138 52.5844C137.651 52.5844 138.154 52.6431 138.667 52.6683H138.742V52.7439L116.324 52.7859Z" fill="#A33332"/>
<path d="M173.511 26.4017V14.5188C173.511 14.0809 173.511 13.6767 173.511 13.2135C173.394 10.4933 172.671 9.7522 169.943 9.49113C169.43 9.4406 168.734 9.69325 168.708 8.64898C168.683 7.6047 168.851 7.30152 169.968 7.31837C174.846 7.39416 179.724 7.31837 184.611 7.31837C185.132 7.31837 185.745 7.12467 185.703 8.07631C185.661 8.83425 185.703 9.39007 184.653 9.47429C182.302 9.65114 181.706 10.3164 181.53 12.6576C181.278 16.0263 181.454 19.3949 181.378 22.7635C181.378 23.4794 181.681 23.6057 182.311 23.6057C186.229 23.6057 190.147 23.6057 194.065 23.6057C194.729 23.6057 194.955 23.412 194.955 22.7635C194.955 19.4791 194.955 16.1947 194.955 12.9019C194.913 10.4512 194.166 9.73536 191.664 9.48271C190.598 9.37323 190.211 8.75004 190.531 7.73102C190.715 7.13309 191.177 7.37732 191.521 7.3689C195.526 7.3689 199.531 7.3689 203.537 7.3689C204.485 7.3689 205.443 7.3689 206.391 7.3689C206.979 7.3689 207.659 7.11625 207.634 8.21105C207.634 9.10374 207.399 9.42376 206.467 9.49113C203.604 9.68483 202.957 10.468 202.949 13.7019C202.949 20.355 202.949 27.008 202.949 33.6611C202.949 35.6401 202.907 37.6192 202.999 39.5562C203.125 42.2258 203.763 42.9248 206.358 43.169C207.55 43.2617 207.55 43.8259 207.525 44.6849C207.525 45.2239 207.273 45.3418 206.794 45.3418C201.555 45.3418 196.316 45.3418 191.085 45.3418C190.354 45.3418 190.321 44.946 190.371 44.4323C190.421 43.9185 190.094 43.3543 191.034 43.2196C194.586 42.7311 194.964 42.2511 194.964 38.6635C194.964 35.0759 194.964 31.2946 194.964 27.6144C194.964 26.7722 194.729 26.5533 193.906 26.5701C190.06 26.5701 186.206 26.5701 182.361 26.5701C181.588 26.5701 181.345 26.7722 181.362 27.5554C181.446 31.4715 181.286 35.3959 181.471 39.3456C181.605 42.31 182.117 42.9585 185.073 43.2364C186.156 43.3375 185.787 44.0112 185.862 44.567C185.971 45.325 185.543 45.4092 184.947 45.4092C179.909 45.4092 174.871 45.4092 169.833 45.4092C169.212 45.4092 168.834 45.3081 168.91 44.567C168.977 43.9859 168.675 43.2448 169.749 43.2701C170.318 43.2641 170.883 43.1791 171.429 43.0174C171.889 42.9215 172.311 42.6912 172.641 42.3556C172.971 42.0199 173.195 41.5939 173.284 41.131C173.456 40.2775 173.532 39.4075 173.511 38.5372V26.4017Z" fill="#2970A5"/>
<path d="M40.3368 27.1933C40.3368 21.5677 41.6298 17.0874 44.5349 13.1208C51.1933 4.00026 67.7594 3.65498 73.2842 16.4895C74.8135 19.8155 75.5348 23.4579 75.3888 27.1177C75.2429 30.7775 74.2338 34.3505 72.4445 37.5434C68.9348 44.028 63.0742 46.7314 55.8449 46.0492C48.6156 45.3671 44.0144 41.131 41.5878 34.3937C40.7328 32.0912 40.3087 29.6502 40.3368 27.1933ZM66.3656 27.1933C66.4203 24.4796 66.1753 21.7682 65.6351 19.1086C65.0725 16.2621 64.2329 13.5082 62.2765 11.2681C59.4805 8.11842 55.3915 8.24474 52.7718 11.5376C51.8163 12.7532 51.0984 14.139 50.6559 15.622C48.839 21.7598 48.72 28.2776 50.3117 34.478C50.9834 37.3581 52.0413 40.0783 54.3419 42.1079C54.9523 42.7072 55.6855 43.1659 56.4905 43.452C57.2956 43.7381 58.1531 43.8448 59.0035 43.7646C59.8539 43.6845 60.6766 43.4194 61.4144 42.9878C62.1522 42.5563 62.7874 41.9686 63.2757 41.2658C64.0084 40.2843 64.5756 39.189 64.955 38.0234C66.0539 34.5183 66.5313 30.847 66.3656 27.1764V27.1933Z" fill="#671E1C"/>
<path d="M30.1686 32.5662C30.0594 26.5785 30.3617 20.7171 29.8915 14.8809C29.8243 14.0977 29.7403 13.3061 29.6312 12.5229C29.5901 11.8402 29.3181 11.1919 28.8601 10.6851C28.4022 10.1783 27.7856 9.84331 27.1123 9.73535C26.5432 9.57324 25.9569 9.47994 25.3658 9.45743C24.2743 9.49954 24.3499 8.85108 24.3163 8.09314C24.3163 7.09097 24.9712 7.41099 25.4414 7.40257C29.2953 7.40257 33.1409 7.40257 36.9864 7.40257C37.4063 7.40257 38.0444 7.17519 37.9436 8.00892C37.8764 8.58159 38.2795 9.27216 37.104 9.42375C34.1988 9.81114 33.6447 10.5607 33.4012 13.4998C32.5615 23.8668 33.0989 34.2421 32.9813 44.6596C32.9813 45.8302 32.6539 46.0324 31.554 46.0576C31.0173 46.1038 30.4785 45.9991 29.9979 45.7551C29.5174 45.5111 29.1141 45.1376 28.8335 44.6765C22.1164 35.598 15.3797 26.5392 8.62343 17.5C8.25399 17.7358 8.4303 18.0896 8.4303 18.3422C8.48908 24.4731 8.2372 30.6124 8.64862 36.7518C8.71579 37.855 8.78295 38.9582 8.92569 40.0615C9.20277 42.2174 10.4035 43.1185 13.1239 43.3459C13.7032 43.3459 14.3917 43.2027 14.3666 44.2722C14.3666 45.1902 14.1315 45.4681 13.1827 45.4513C9.32872 45.3923 5.48317 45.4513 1.62922 45.4513C1.15063 45.4513 0.436938 45.7376 0.529298 44.7439C0.588073 44.0785 0.319383 43.4048 1.49488 43.329C3.88785 43.1859 4.85343 42.1247 5.08853 39.7583C5.92817 32.1789 5.50836 24.6415 5.59232 17.0874C5.59232 16.2958 5.59232 15.5041 5.59232 14.7125C5.64957 13.4479 5.21929 12.2097 4.39072 11.2548C3.56215 10.2999 2.3989 9.70147 1.14224 9.58376C0.134677 9.44059 -0.0668334 9.01109 0.0171305 8.1184C0.0591125 7.63837 0.143058 7.42783 0.680427 7.43626C3.73671 7.43626 6.79301 7.43626 9.8493 7.43626C10.4538 7.43626 10.6889 7.80681 10.9492 8.16893L29.2869 31.842C29.5011 32.1672 29.8085 32.4197 30.1686 32.5662Z" fill="#671E1C"/>
<path d="M246.51 45.3839H233.294C232.715 45.3839 232.161 45.4597 232.236 44.5417C232.295 43.8848 232.085 43.1606 233.185 43.2195C233.753 43.2186 234.318 43.1392 234.865 42.9837C235.466 42.9401 236.031 42.6739 236.448 42.2367C236.865 41.7994 237.106 41.2223 237.123 40.6173C237.248 39.7809 237.313 38.9365 237.316 38.0908C237.316 30.1689 237.316 22.2442 237.316 14.3167C237.316 13.8029 237.316 13.2892 237.316 12.7755C237.115 10.3501 236.477 9.66795 234.025 9.40689C233.278 9.33109 232.9 9.17108 232.908 8.29524C232.917 7.41939 233.168 7.25096 233.991 7.25096C242.085 7.25096 250.18 7.25096 258.274 7.25096C259.172 7.25096 259.424 7.52045 259.466 8.37103C259.575 10.5438 259.785 12.7081 259.919 14.8809C259.919 15.2599 260.163 15.8915 259.432 15.8157C258.702 15.7399 258.013 16.5315 257.585 15.2936C255.906 10.3501 255.108 9.82796 249.869 9.66795C248.803 9.66795 247.728 9.66795 246.653 9.66795C246.449 9.63441 246.24 9.65141 246.044 9.71745C245.848 9.78349 245.671 9.89659 245.529 10.0469C245.386 10.1972 245.283 10.3801 245.227 10.5797C245.171 10.7794 245.165 10.9896 245.209 11.1923C245.209 15.3525 245.209 19.5128 245.209 23.673C245.209 24.0436 245.293 24.271 245.729 24.2626C247.677 24.2626 249.617 24.2625 251.607 24.1615C253.597 24.0604 254.369 22.8646 254.63 21.2055C254.823 19.9423 255.536 19.8581 256.527 19.9339C256.997 19.9339 257.123 20.1697 257.123 20.5992C257.123 24.0436 257.123 27.488 257.123 30.9409C257.123 31.2777 257.123 31.6399 256.645 31.5725C256.065 31.4798 255.352 31.9683 254.965 31.2104C254.879 30.9881 254.82 30.7563 254.789 30.5198C254.092 27.808 253.37 27.2017 250.591 27.1512C249.08 27.1006 247.568 27.1512 246.065 27.1512C245.662 27.1512 245.226 27.0922 245.284 27.7238C245.402 31.9346 245.058 36.1959 245.494 40.4236C245.497 41.0072 245.717 41.5688 246.112 41.9976C246.506 42.4263 247.047 42.691 247.627 42.7395C249.976 43.1275 252.373 43.1275 254.722 42.7395C256.063 42.4934 257.253 41.7242 258.03 40.6004C258.993 39.2913 259.775 37.858 260.356 36.3391C260.767 35.2611 261.456 35.9938 262.035 36.0022C262.615 36.0107 262.782 36.457 262.665 36.996C262.111 39.5898 261.54 42.1753 260.986 44.7775C260.835 45.5102 260.364 45.4597 259.835 45.4597L246.51 45.3839Z" fill="#2970A5"/>
<path d="M155.14 6.60253C157.604 6.59467 160.054 6.98422 162.395 7.75629C162.6 7.78789 162.789 7.88826 162.931 8.04111C163.073 8.19397 163.159 8.39036 163.175 8.59845C163.478 10.8723 163.814 13.1461 164.141 15.4115C164.208 15.9084 164.301 16.38 163.545 16.3968C162.789 16.4137 162.176 17.0453 161.866 15.9084C161.358 14.3257 160.58 12.8438 159.565 11.5292C157.18 8.40475 152.991 7.99209 150.581 10.628C149.689 11.6753 149.177 12.9945 149.129 14.3708C149.08 15.747 149.497 17.0993 150.312 18.2075C151.626 19.7512 153.248 21.002 155.073 21.8793C157.258 23.0008 159.355 24.2874 161.345 25.7279C166.828 30.0145 167.626 37.0297 163.108 41.9647C160.589 44.6765 157.348 45.805 153.772 46.0913C150.368 46.3679 146.947 45.8221 143.797 44.4996C143.519 44.4098 143.27 44.2467 143.077 44.0275C142.883 43.8082 142.752 43.5408 142.697 43.2532C142.05 40.7268 141.739 38.0487 141.345 35.4296C141.16 34.2 142.26 34.5032 142.839 34.2C143.587 33.8127 143.57 34.5285 143.679 34.9075C144.557 37.3806 145.967 39.6292 147.81 41.4931C149.039 42.7584 150.669 43.5537 152.42 43.7417C157.029 44.1038 159.976 39.9015 158.297 35.5307C157.661 34.0706 156.65 32.8062 155.367 31.8673C153.665 30.6376 151.88 29.5262 150.027 28.5407C148.561 27.6704 147.178 26.6668 145.896 25.5427C144.48 24.3483 143.407 22.7981 142.785 21.0508C142.163 19.3034 142.016 17.4217 142.357 15.5984C142.699 13.775 143.518 12.0755 144.73 10.6739C145.941 9.27227 147.503 8.21886 149.254 7.62154C151.127 6.88335 153.129 6.53659 155.14 6.60253Z" fill="#2970A5"/>
<path d="M138.885 0.168374C136.904 2.8717 134.989 5.48239 133.067 8.08466L120.673 24.9278C120.442 25.1927 120.156 25.4049 119.836 25.5503C119.516 25.6957 119.169 25.7709 118.818 25.7709C118.467 25.7709 118.119 25.6957 117.799 25.5503C117.479 25.4049 117.194 25.1927 116.962 24.9278C114.018 20.9079 111.06 16.8936 108.087 12.885C107.975 12.7847 107.884 12.6624 107.821 12.5256C107.758 12.3889 107.723 12.2406 107.719 12.0898C107.715 11.9391 107.742 11.7891 107.798 11.6492C107.854 11.5093 107.938 11.3825 108.045 11.2764C110.631 7.83201 113.175 4.33706 115.728 0.867365C115.848 0.6199 116.034 0.410407 116.265 0.261855C116.496 0.113303 116.763 0.0314275 117.038 0.0252075C124.183 0.0252075 131.312 0.0252075 138.474 0.0252075C138.615 0.0599662 138.753 0.107897 138.885 0.168374Z" fill="#242122"/>
<path d="M138.667 52.6686C138.155 52.6686 137.651 52.5843 137.139 52.5843L116.408 52.6349C114.342 50.2431 112.63 47.5819 110.707 45.0555C109.766 43.8343 108.885 42.529 107.961 41.3331C107.876 41.2586 107.807 41.1676 107.757 41.0656C107.708 40.9635 107.68 40.8526 107.674 40.7393C107.669 40.6261 107.686 40.5129 107.725 40.4065C107.765 40.3002 107.825 40.2029 107.902 40.1204C110.975 36.0023 113.998 31.8504 117.054 27.7154C117.751 26.7638 119.926 26.8059 120.64 27.7659C126.523 35.7608 132.4 43.7557 138.272 51.7506C138.482 52.0201 138.885 52.2306 138.667 52.6686Z" fill="#242122"/>
<path d="M269.709 26.3175C269.709 21.8793 269.751 17.4411 269.709 13.0114C269.709 10.4849 268.869 9.76063 266.35 9.49956C265.704 9.43219 265.15 9.44061 265.166 8.4637C265.183 7.4868 265.427 7.35206 266.308 7.36048C271.271 7.40259 276.233 7.36048 281.187 7.36048C281.707 7.36048 282.329 7.14994 282.295 8.10158C282.295 8.87636 282.295 9.40692 281.237 9.49114C278.475 9.71852 277.795 10.4765 277.761 13.2387C277.643 21.9467 277.643 30.649 277.761 39.3456C277.761 41.9816 278.441 42.5964 281.061 42.8153C282.441 42.9487 283.833 42.9261 285.209 42.748C286.078 42.6649 286.917 42.3815 287.66 41.9199C288.403 41.4583 289.029 40.831 289.491 40.0867C290.303 38.8229 290.973 37.4728 291.489 36.0612C291.774 35.2191 292.228 35.3622 292.866 35.5138C293.504 35.6654 293.924 35.8759 293.706 36.6928C293.146 39.2811 292.614 41.8749 292.11 44.4744C291.993 45.0892 291.758 45.3165 291.094 45.3165C282.564 45.3165 274.033 45.3165 265.502 45.3165C264.822 45.3165 264.562 45.106 264.663 44.4744C264.738 43.9438 264.411 43.329 265.418 43.2196C269.272 42.8322 269.751 42.2679 269.768 38.394C269.768 34.3601 269.768 30.3177 269.768 26.2753L269.709 26.3175Z" fill="#2970A5"/>
<path d="M224.083 26.3932C224.083 30.8735 223.805 35.3454 224.083 39.8172C224.259 42.4026 224.922 43.0343 227.533 43.2364C228.583 43.3206 228.457 43.8764 228.507 44.5586C228.566 45.4007 228.062 45.4007 227.466 45.4007H212.613C211.992 45.4007 211.505 45.4007 211.597 44.5586C211.664 43.9606 211.429 43.3627 212.437 43.2701C215.35 43.0174 216.056 42.209 216.064 39.2446C216.064 30.6152 216.064 21.9831 216.064 13.3482C216.064 10.6112 215.3 9.76061 212.613 9.54164C211.547 9.45743 211.589 8.91003 211.563 8.14366C211.563 7.19202 212.16 7.41098 212.672 7.41098H227.433C227.97 7.41098 228.583 7.25097 228.499 8.18577C228.449 8.85107 228.617 9.44901 227.559 9.55007C224.763 9.79429 224.2 10.2743 224.091 13.0113C223.982 17.4495 224.083 21.9214 224.083 26.3932Z" fill="#2970A5"/>
<path d="M85.627 0.0757943C89.1954 0.0757943 92.7639 0.0757942 96.3323 0C97.13 0 97.3147 0.597933 97.6338 1.03585C102.537 7.68329 107.438 14.3391 112.336 21.0034C113.427 22.494 114.527 23.9762 115.694 25.61H104.208C104.196 25.5316 104.173 25.4551 104.141 25.3826L91.4625 8.1184C89.5061 5.44034 87.4406 2.84649 85.627 0.0757943Z" fill="#A33332"/>
<path d="M85.627 0.075592C87.4406 2.84629 89.5061 5.44014 91.4625 8.1182L104.149 25.3824C104.182 25.4549 104.204 25.5314 104.217 25.6098C100.729 25.6098 97.2392 25.6098 93.7463 25.6098C93.5539 25.6295 93.3599 25.596 93.1852 25.5128C93.0105 25.4297 92.8619 25.3001 92.7555 25.1382L74.5186 0.395612C74.5186 0.345083 74.5186 0.252445 74.5186 0.075592H85.627Z" fill="#DC3E3C"/>
</svg>
