<svg width="19" height="19" viewBox="0 0 19 19" fill="none" xmlns="http://www.w3.org/2000/svg">
<path d="M13.6362 18.0261C13.1233 18.0286 12.6117 17.9756 12.1102 17.8681C10.995 17.5938 9.92526 17.1603 8.93393 16.581C7.2604 15.6463 5.73637 14.4667 4.4125 13.0814C3.58218 12.2288 2.82589 11.3072 2.15179 10.3267C1.45588 9.31381 0.89004 8.21767 0.467555 7.06401C0.184526 6.2965 0.0280115 5.48823 0.00410873 4.67066C-0.0248345 4.059 0.0994917 3.44984 0.365823 2.89829C0.494821 2.6381 0.666779 2.40148 0.874482 2.19835L2.80739 0.256603L2.97695 0.109835C3.05408 0.0392283 3.15491 0 3.25954 0C3.36416 0 3.46499 0.0392283 3.54212 0.109835L3.67777 0.234002L7.23839 3.77889L7.31752 3.85786C7.3623 3.90103 7.39792 3.95278 7.42224 4.01C7.44657 4.06722 7.45911 4.12878 7.45911 4.19095C7.45911 4.25311 7.44657 4.31467 7.42224 4.37189C7.39792 4.42911 7.3623 4.48072 7.31752 4.5239C7.05753 4.80613 6.77495 5.07719 6.50366 5.34814L5.52025 6.33031C5.47483 6.36758 5.44339 6.41912 5.43108 6.47653C5.41876 6.53394 5.42629 6.59372 5.45243 6.64631C5.853 7.60722 6.38562 8.50773 7.03493 9.3219C7.47753 9.87677 7.96934 10.3908 8.50439 10.8574C9.2253 11.5182 10.0502 12.0558 10.946 12.4491C11.0929 12.5168 11.2512 12.562 11.4094 12.6185C11.4604 12.6437 11.5185 12.6508 11.574 12.6384C11.6295 12.6261 11.6792 12.5952 11.7146 12.5508L12.7093 11.546L13.444 10.8122C13.7605 10.4961 13.9753 10.4961 14.3031 10.8122L16.6317 13.1377C17.016 13.5216 17.4003 13.9167 17.762 14.2667C18.1237 14.6166 18.0898 14.8538 17.762 15.1812C17.1064 15.8134 16.4734 16.4681 15.8291 17.1116C15.4074 17.5206 14.8714 17.7923 14.2918 17.8907L13.6362 18.0261Z" fill="white"/>
</svg>
