<svg width="19" height="14" viewBox="0 0 19 14" fill="none" xmlns="http://www.w3.org/2000/svg">
<path d="M0.0805664 2.14966L0.190567 2.21973L9.19057 7.69983C9.23229 7.73147 9.28321 7.74842 9.33557 7.74842C9.38792 7.74842 9.43884 7.73147 9.48057 7.69983L16.6006 3.34974L18.5506 2.15967C18.5463 2.13318 18.5463 2.10621 18.5506 2.07972C18.4013 1.48761 18.0584 0.962308 17.5765 0.587284C17.0946 0.21226 16.5012 0.00906108 15.8906 0.00976936H2.75057C2.12826 0.00873991 1.52427 0.220304 1.03869 0.609501C0.5531 0.998698 0.215057 1.54206 0.0805664 2.14966Z" fill="white"/>
<path d="M0.000488281 3.88013L0.720488 4.30005L8.63049 9.12012C8.82696 9.25736 9.06083 9.33081 9.30049 9.33081C9.54014 9.33081 9.77402 9.25736 9.97049 9.12012L18.4105 3.97998L18.5805 3.83008C18.5843 3.88668 18.5843 3.9434 18.5805 4V10.9302C18.5837 11.6373 18.3123 12.318 17.8236 12.8291C17.335 13.3402 16.667 13.6417 15.9605 13.6702H2.84049C2.33982 13.6937 1.84263 13.5756 1.40583 13.3298C0.969019 13.084 0.610225 12.7202 0.370489 12.28C0.232217 11.9877 0.12173 11.6831 0.0404873 11.3701V11.28L0.000488281 3.88013Z" fill="white"/>
<path d="M0.0805664 2.1499C0.213071 1.54045 0.550261 0.994806 1.03604 0.60364C1.52181 0.212473 2.12688 -0.000528837 2.75057 1.84537e-06H15.8506C16.4612 -0.00070644 17.0546 0.202493 17.5365 0.577516C18.0184 0.952541 18.3612 1.47784 18.5106 2.06995C18.5063 2.09644 18.5063 2.12341 18.5106 2.1499L16.5806 3.33997L9.46057 7.69007C9.41884 7.7217 9.36792 7.73865 9.31557 7.73865C9.26321 7.73865 9.21229 7.7217 9.17057 7.69007L0.170567 2.20996L0.0805664 2.1499Z" fill="white"/>
</svg>
