<svg width="17" height="17" viewBox="0 0 17 17" fill="none" xmlns="http://www.w3.org/2000/svg">
<path d="M3.29072 14.3901C1.89817 13.0009 1.08351 11.1356 1.01072 9.16992H4.50072C4.53576 10.5785 4.83071 11.9686 5.37072 13.27L3.29072 14.3901ZM14.4007 14.3901C15.784 12.9996 16.5942 11.1398 16.6707 9.17993H13.2607C13.1607 9.88993 13.1007 10.6 12.9507 11.29C12.8007 11.98 12.5807 12.64 12.3907 13.29L14.4007 14.3901ZM4.50072 8.48999C4.53741 7.31584 4.7463 6.15349 5.12072 5.04004C5.12072 4.92004 5.12072 4.87008 5.01072 4.83008C4.35001 4.54728 3.72828 4.18088 3.16072 3.73999C3.02072 3.63999 2.95072 3.63999 2.84072 3.73999C1.91398 4.83768 1.30838 6.17009 1.09072 7.59009C1.04072 7.89009 1.02072 8.19 0.990723 8.5H4.48072C4.48772 8.49367 4.4944 8.48698 4.50072 8.47998V8.48999ZM14.7107 3.66016L14.3707 3.90015L12.7207 4.90015C12.5807 4.97015 12.5507 5.02992 12.6007 5.16992C12.8563 5.89105 13.0275 6.6396 13.1107 7.40015C13.1107 7.80015 13.1907 8.20012 13.2307 8.62012H16.6707C16.6237 6.78421 15.9295 5.02398 14.7107 3.65015V3.66016ZM9.12072 9.16992V12.6101L11.7807 13.0601C12.2834 11.8225 12.5611 10.5051 12.6007 9.16992H9.12072ZM5.90072 13.04L8.55072 12.5901V9.15015H5.12072C5.14056 10.4836 5.40494 11.802 5.90072 13.04ZM8.55072 5.62012C7.58351 5.58854 6.62637 5.41327 5.71072 5.1001C5.32348 6.20712 5.11093 7.36763 5.08072 8.54004H8.55072V5.62012ZM9.16072 8.53003H12.6207C12.6026 7.35875 12.3863 6.19908 11.9807 5.1001C11.0724 5.41497 10.1216 5.59031 9.16072 5.62012V8.53003ZM8.54072 5.03003V1.04004C7.40084 2.00481 6.50919 3.22918 5.94072 4.61011C6.77845 4.89302 7.65651 5.03817 8.54072 5.04004V5.03003ZM9.17072 0.97998V5.04004C10.0592 5.01311 10.9387 4.85476 11.7807 4.57007C11.2049 3.20198 10.31 1.99156 9.17072 1.04004V0.97998ZM7.50072 1.13013C5.95094 1.38257 4.51618 2.10501 3.39072 3.19995C4.00172 3.67549 4.67455 4.06589 5.39072 4.36011C5.90394 3.17658 6.61777 2.09065 7.50072 1.15015V1.13013ZM12.3207 4.37012C13.0379 4.07369 13.7109 3.67983 14.3207 3.19995C13.1953 2.1105 11.7655 1.3888 10.2207 1.13013C11.1131 2.0801 11.8247 3.18484 12.3207 4.39014V4.37012ZM8.50072 16.6602H8.55072V13.25C7.73856 13.2633 6.93297 13.3983 6.16072 13.6501C6.71625 14.8151 7.51402 15.8479 8.50072 16.6799V16.6602ZM11.5607 13.6602C10.786 13.4212 9.98134 13.2931 9.17072 13.28V16.74C10.1763 15.886 10.9907 14.8299 11.5607 13.6401V13.6602ZM7.50072 16.5601C6.721 15.7553 6.07607 14.8301 5.59072 13.8201L3.75072 14.8201C4.81447 15.7341 6.11404 16.3301 7.50072 16.54V16.5601ZM13.9307 14.8301C13.422 14.4855 12.8831 14.1875 12.3207 13.9399C12.1507 13.8599 12.0707 13.9401 11.9907 14.0701C11.5619 14.9318 11.0057 15.7239 10.3407 16.4199C10.3005 16.4789 10.2571 16.5358 10.2107 16.5901C11.586 16.3352 12.8694 15.7211 13.9307 14.8101V14.8301Z" fill="white"/>
</svg>
