<svg width="15" height="22" viewBox="0 0 15 22" fill="none" xmlns="http://www.w3.org/2000/svg">
<path d="M14.8784 6.15883C14.5953 4.6802 13.8837 3.32184 12.8353 2.25903C11.9215 1.2987 10.7666 0.611896 9.49623 0.273435C9.02923 0.15454 8.55056 0.095116 8.07188 0H6.97443L6.42571 0.0950638C5.0532 0.285847 3.764 0.876298 2.71307 1.79533C1.62861 2.69514 0.818611 3.89126 0.378069 5.24331C-0.0509693 6.45685 -0.115991 7.77282 0.19127 9.02409C0.554869 10.2995 1.0438 11.5343 1.65064 12.7098C3.28566 15.874 5.15518 18.9067 7.24296 21.7815C7.45311 22.0787 7.52316 22.0669 7.73331 21.7815C9.32772 19.5729 10.8048 17.279 12.1581 14.9095C13.1579 13.228 13.9872 11.4472 14.6332 9.59477C15.0173 8.4928 15.102 7.30577 14.8784 6.15883V6.15883ZM7.49981 10.3557C6.96924 10.351 6.45193 10.1864 6.01318 9.88257C5.57443 9.57872 5.23391 9.14925 5.0346 8.64848C4.83528 8.14772 4.78611 7.59803 4.8933 7.06883C5.00048 6.53963 5.25921 6.05467 5.63682 5.67509C6.01444 5.29551 6.49402 5.03832 7.01502 4.93606C7.53602 4.8338 8.07509 4.89102 8.56419 5.1005C9.05328 5.30997 9.47047 5.66238 9.76311 6.11311C10.0557 6.56384 10.2107 7.09278 10.2084 7.63311C10.2084 7.99167 10.1389 8.34669 10.0038 8.6778C9.86869 9.00891 9.67071 9.30956 9.42121 9.56255C9.17171 9.81553 8.8756 10.0158 8.54988 10.1519C8.22416 10.2881 7.87524 10.3573 7.52316 10.3557H7.49981Z" fill="white"/>
</svg>
