<svg width="72" height="72" viewBox="0 0 72 72" fill="none" xmlns="http://www.w3.org/2000/svg">
<path d="M35.85 0C28.7596 0 21.8283 2.10256 15.9328 6.04181C10.0373 9.98106 5.44234 15.5801 2.72893 22.1308C0.0155323 28.6815 -0.694416 35.8898 0.688864 42.844C2.07214 49.7982 5.48653 56.1861 10.5002 61.1998C15.514 66.2135 21.9018 69.6279 28.856 71.0112C35.8102 72.3944 43.0185 71.6845 49.5692 68.9711C56.12 66.2577 61.719 61.6627 65.6582 55.7672C69.5975 49.8717 71.7 42.9405 71.7 35.85C71.7 26.342 67.923 17.2234 61.1998 10.5002C54.4766 3.77703 45.358 0 35.85 0ZM46.44 50.94L38.26 59.12L16.04 36.9L38.37 14.57L46.55 22.75L32.39 36.9L46.44 50.94Z" fill="white"/>
</svg>
