<svg width="72" height="72" viewBox="0 0 72 72" fill="none" xmlns="http://www.w3.org/2000/svg">
<path d="M0 35.85C0 42.9405 2.1025 49.8717 6.04175 55.7672C9.981 61.6627 15.58 66.2577 22.1307 68.9711C28.6815 71.6845 35.8898 72.3944 42.844 71.0112C49.7982 69.6279 56.186 66.2135 61.1997 61.1998C66.2134 56.1861 69.6278 49.7982 71.0111 42.844C72.3944 35.8898 71.6845 28.6815 68.9711 22.1308C66.2577 15.5801 61.6626 9.98106 55.7671 6.04181C49.8716 2.10256 42.9404 0 35.85 0C26.342 0 17.2233 3.77703 10.5001 10.5002C3.77694 17.2234 0 26.342 0 35.85V35.85ZM39.3099 36.9L25.1499 22.75L33.33 14.57L55.7 36.9L33.48 59.12L25.2999 50.94L39.3099 36.9Z" fill="white"/>
</svg>
